The life of a businessman begins to change after he inherits six penguins, and as he transforms his apartment into a winter wonderland, his professional side starts to unravel. 

IMDB rating: 5.8/10 (from 5,552 users)

CAST:

Jim Carrey......................Mr. Popper
Carla Gugino....................Amanda
Angela Lansbury.................Mrs. Van Gundy
Ophelia Lovibond................Pippi
Madeline Carroll................Janie
Clark Gregg.....................Nat Jones
Jeffrey Tambor..................Mr. Gremmins
David Krumholtz.................Kent
Philip Baker Hall...............Franklin
Maxwell Perry Cotton............Billy
James Tupper....................Rick
Dominic Chianese................Reader
William Charles Mitchell........Yates (as William C. Mitchell)
Kelli Barrett...................Tommy's Mom
Dylan Clark Marshall............Young Tommy Popper #2 

Format                           : Matroska
File size                        : 1 004 MiB
Duration                         : 1h 34mn
Overall bit rate                 : 1 488 Kbps
Encoded date                     : UTC 2011-10-02 03:02:59
Writing application              : mkvmerge v5.0.0 ('Die Wahre Liebe') built on Sep 25 2011 20:33:49
Writing library                  : libebml v1.2.2 + libmatroska v1.3.0

Video
ID                               : 1
Format                           : AVC
Format/Info                      : Advanced Video Codec
Format profile                   : Main@L3.0
Format settings, CABAC           : Yes
Format settings, ReFrames        : 4 frames
Muxing mode                      : Container profile=Unknown@3.0
Codec ID                         : V_MPEG4/ISO/AVC
Duration                         : 1h 34mn
Bit rate                         : 1 267 Kbps
Nominal bit rate                 : 1 286 Kbps
Width                            : 720 pixels
Height                           : 384 pixels
Display aspect ratio             : 1.875
Frame rate mode                  : Variable
Frame rate                       : 23.976 fps
Resolution                       : 8 bits
Colorimetry                      : 4:2:0
Scan type                        : Progressive
Bits/(Pixel*Frame)               : 0.191
Stream size                      : 854 MiB (85%)
Writing library                  : x264 core 112

Audio
ID                               : 2
Format                           : AC-3
Format/Info                      : Audio Coding 3
Codec ID                         : A_AC3
Duration                         : 1h 34mn
Bit rate mode                    : Constant
Bit rate                         : 192 Kbps
Channel(s)                       : 6 channels
Channel positions                : Front: L C R, Side: L R, LFE
Sampling rate                    : 48.0 KHz
Stream size                      : 130 MiB (13%)

Text #1
ID                               : 3
Format                           : UTF-8
Codec ID                         : S_TEXT/UTF8
Codec ID/Info                    : UTF-8 Plain Text
Language                         : Romanian
Language                         : English
Language                         : Spanish
Language                         : Portugues


Recommended player :VLC media player....http://www.videolan.org/vlc/

SEED UNTIL YOU BLEED